<svg xmlns="http://www.w3.org/2000/svg" viewBox="0 0 48 48" width="48px" height="48px">
  <path fill="#000000" d="M32.163,27.969c-0.029-2.892,1.185-5.698,3.36-7.594c-1.305-1.879-3.389-3.062-5.665-3.216c-2.374-0.248-4.697,1.41-5.917,1.41c-1.256,0-3.145-1.387-5.184-1.346c-2.662,0.039-5.12,1.549-6.481,3.934c-2.795,4.849-0.711,11.985,1.963,15.907c1.334,1.924,2.902,4.076,4.958,4.002c2.01-0.084,2.762-1.289,5.184-1.289c2.389,0,3.096,1.289,5.184,1.236c2.146-0.035,3.502-1.932,4.798-3.877c1.003-1.441,1.778-3.033,2.31-4.713C34.344,31.783,32.193,30.052,32.163,27.969z"/>
  <path fill="#000000" d="M29.07,15.325c1.147-1.409,1.725-3.197,1.604-5.008c-1.829,0.205-3.518,1.078-4.717,2.44c-1.139,1.283-1.737,2.981-1.664,4.715C26.173,17.614,27.891,16.733,29.07,15.325z"/>
</svg> 